# Blender v2.79 (sub 0) OBJ File: ''
# www.blender.org
mtllib monitor_reducedPoly.mtl
o Body1
v 0.318229 0.045798 -0.103091
v 0.341855 0.023199 -0.104231
v 0.328764 0.022694 -0.124859
v 0.318122 0.045849 0.157934
v 0.341904 0.022944 0.158919
v 0.296188 0.045784 0.168466
v 0.295201 0.023359 0.191948
v 0.326025 0.022637 0.181436
v 0.169030 0.045767 0.114020
v 0.161091 0.022542 0.135991
v 0.002688 0.021726 0.112701
v -0.000000 0.045768 0.090648
v -0.161562 0.045768 0.112464
v -0.158168 0.022118 0.135071
v -0.296604 0.045789 0.168694
v -0.289811 0.022950 0.190738
v -0.318018 0.045823 0.157525
v -0.340271 0.023193 0.164812
v -0.315738 0.022637 0.187522
v -0.318603 0.045803 -0.102664
v -0.339840 0.023209 -0.112408
v -0.228846 0.022545 -0.183020
v -0.239177 0.045773 -0.151173
v -0.120701 0.045783 -0.193987
v -0.113802 0.022887 -0.217435
v -0.001787 0.022159 -0.230557
v 0.040505 0.045782 -0.205897
v 0.113802 0.022887 -0.217435
v 0.198444 0.045779 -0.170361
v 0.224484 0.022490 -0.184847
v -0.340672 -0.000000 0.165164
v -0.337413 -0.000051 -0.116684
v -0.217238 0.000000 -0.187271
v -0.113802 0.000000 -0.217435
v 0.006791 0.000000 -0.229982
v 0.113802 0.000000 -0.217435
v 0.229745 0.000000 -0.181976
v 0.340364 0.000020 -0.111948
v 0.088847 0.045773 -0.024604
v -0.090459 0.045773 -0.025743
v -0.090336 0.045773 -0.041566
v -0.053889 0.045773 -0.059665
v 0.000000 0.045773 -0.069242
v 0.053889 0.045773 -0.059665
v 0.091525 0.045773 -0.040082
v -0.115315 0.549281 -0.000516
v -0.115713 0.732374 -0.000434
v -0.107028 0.549281 -0.029731
v -0.106301 0.732375 -0.030267
v -0.088847 0.549281 -0.024604
v 0.090459 0.549281 -0.025742
v 0.115696 0.549281 -0.000573
v 0.106251 0.549281 -0.030393
v -0.091429 0.549281 -0.040454
v 0.090252 0.549281 -0.041747
v 0.110343 0.732377 -0.026562
v 0.114433 0.732374 0.000000
v -0.046283 0.732376 -0.063523
v 0.042066 0.732378 -0.065022
v -0.007310 -0.000000 0.113147
v 0.155350 -0.000000 0.134541
v 0.341477 -0.000000 0.160343
v 0.295673 -0.000000 0.192417
v 0.325863 -0.000000 0.181228
v -0.169372 -0.000000 0.138681
v -0.304094 -0.000021 0.191660
v 0.572167 0.320414 0.068660
v -0.572167 0.320414 0.068660
v 0.569912 0.324189 0.050292
v -0.567442 0.328514 0.040293
v 0.557168 0.340760 0.024923
v -0.525682 0.365044 0.001165
v 0.521035 0.364992 0.001195
v -0.557168 0.940895 0.024924
v -0.521560 0.916867 0.001399
v -0.569912 0.957466 0.050293
v -0.572167 0.961241 0.068660
v 0.572463 0.961282 0.065386
v 0.557356 0.940849 0.024587
v 0.519605 0.916479 0.001012
v 0.549281 0.343300 0.045773
v 0.549281 0.938354 0.045774
v -0.549281 0.343300 0.045773
v -0.549281 0.938354 0.045774
vt 0.000027 0.788690
vt 0.012651 0.786453
vt 0.012919 0.799189
vt 0.000000 0.647584
vt 0.012794 0.644180
vt 0.576844 0.972184
vt 0.589579 0.971326
vt 0.576702 0.984475
vt 0.589875 0.988540
vt 0.012949 0.633928
vt 0.902134 0.651139
vt 0.872311 0.600871
vt 0.914827 0.641917
vt 0.576312 0.902498
vt 0.589315 0.897301
vt 0.589090 0.810353
vt 0.576082 0.809201
vt 0.576304 0.719426
vt 0.589314 0.721444
vt 0.576858 0.643873
vt 0.589809 0.647342
vt 0.898531 0.406044
vt 0.901747 0.389209
vt 0.914827 0.397774
vt 0.904667 0.414477
vt 0.589952 0.633027
vt 0.753547 0.408213
vt 0.748550 0.391794
vt 0.709535 0.436433
vt 0.726194 0.440360
vt 0.701856 0.488060
vt 0.615487 0.929763
vt 0.602660 0.870444
vt 0.615323 0.866524
vt 0.615276 0.804428
vt 0.602605 0.781089
vt 0.615317 0.740435
vt 0.602756 0.693741
vt 0.615468 0.679909
vt 0.603034 0.627660
vt 0.615820 0.621732
vt 0.902070 0.379334
vt 0.745868 0.384221
vt 0.615676 0.986107
vt 0.628489 0.985982
vt 0.628216 0.923950
vt 0.628083 0.866523
vt 0.628025 0.799664
vt 0.628077 0.740434
vt 0.628227 0.676350
vt 0.628488 0.619527
vt 0.025580 0.790453
vt 0.859973 0.533606
vt 0.795391 0.570146
vt 0.795484 0.498571
vt 0.872785 0.468903
vt 0.786666 0.498767
vt 0.776433 0.513486
vt 0.770878 0.535089
vt 0.694565 0.552529
vt 0.775995 0.556515
vt 0.713725 0.615253
vt 0.786755 0.571359
vt 0.750725 0.662460
vt 0.896178 0.660019
vt 0.686613 0.619527
vt 0.690421 0.689646
vt 0.670327 0.623227
vt 0.673790 0.693804
vt 0.048530 0.761908
vt 0.035113 0.747241
vt 0.034503 0.647905
vt 0.048530 0.633928
vt 0.031914 0.639156
vt 0.032254 0.757313
vt 0.026281 0.748669
vt 0.025586 0.648018
vt 0.074777 0.633928
vt 0.071777 0.735361
vt 0.057403 0.633928
vt 0.057263 0.735363
vt 0.049168 0.912873
vt 0.048530 0.633928
vt 0.057263 0.633938
vt 0.057263 0.912879
vt 0.357221 0.721116
vt 0.357616 0.619683
vt 0.365962 0.721069
vt 0.391215 0.619537
vt 0.366610 1.000000
vt 0.387005 0.999921
vt 0.417089 0.999878
vt 0.440477 0.619527
vt 0.447093 0.999917
vt 0.467257 0.721058
vt 0.474953 0.619668
vt 0.476129 0.721106
vt 0.467993 1.000000
vt 0.096910 0.651880
vt 0.106430 0.845852
vt 0.097609 0.844968
vt 0.107007 0.636267
vt 0.107706 0.829355
vt 0.098189 0.636463
vt 0.476129 0.619527
vt 0.576082 0.619807
vt 0.476160 0.898438
vt 0.576082 0.898695
vt 0.759033 0.375489
vt 0.718668 0.310385
vt 0.885761 0.193676
vt 0.701720 0.253122
vt 0.694565 0.186331
vt 0.701408 0.127030
vt 0.721006 0.062749
vt 0.760599 0.002950
vt 0.897459 0.103533
vt 0.911579 0.000384
vt 0.929512 0.025716
vt 0.923237 0.009006
vt 0.900210 0.283423
vt 0.915200 0.378287
vt 0.928462 0.357776
vt 0.602586 0.639675
vt 0.602348 0.619527
vt 0.589506 0.623006
vt 0.602605 0.971587
vt 0.602030 0.894656
vt 0.601820 0.804859
vt 0.602079 0.714758
vt 0.025586 0.643467
vt 0.025570 0.634064
vt 0.602492 0.988459
vt 0.968635 0.000000
vt 0.968635 0.633962
vt 0.958325 0.001250
vt 0.953362 0.630475
vt 0.943856 0.008310
vt 0.931733 0.607451
vt 0.930146 0.028327
vt 0.357221 0.000000
vt 0.694565 0.002095
vt 0.372053 0.020415
vt 0.681271 0.021920
vt 0.993900 0.696735
vt 0.978944 0.457256
vt 0.993421 0.458356
vt 0.968635 0.456834
vt 0.978919 0.702946
vt 0.976911 0.000362
vt 1.000000 0.013438
vt 0.578434 0.374267
vt 0.373619 0.599533
vt 0.476360 0.374978
vt 0.476355 0.247002
vt 0.578431 0.246771
vt 0.681079 0.598712
vt 0.694564 0.619527
vt 0.652563 0.619879
vt 0.654271 0.974545
vt 0.644003 0.972455
vt 0.628649 0.963268
vt 0.628489 0.630819
vt 0.360007 0.619453
vt 0.012987 0.012371
vt 0.000000 0.000000
vt 0.344692 0.012515
vt 0.357221 0.000156
vt 0.012987 0.620792
vt 0.344692 0.620936
vt 0.000000 0.633772
vt 0.357221 0.633928
vt 0.676347 0.779362
vt 0.655199 0.718212
vt 0.654271 0.753506
vt 0.690421 0.781527
vn 0.5857 0.7364 -0.3387
vn 0.6959 0.6967 -0.1741
vn 0.4581 0.7108 -0.5339
vn 0.3811 0.8942 0.2348
vn 0.6790 0.7135 0.1730
vn -0.0093 0.8956 0.4447
vn -0.0048 0.7601 0.6498
vn 0.4026 0.7154 0.5712
vn -0.1952 0.7055 0.6813
vn -0.1891 0.7082 0.6803
vn -0.0071 0.6787 0.7344
vn 0.0037 0.6762 0.7367
vn 0.1864 0.6917 0.6978
vn 0.1957 0.6939 0.6930
vn 0.0254 0.9014 0.4323
vn 0.1425 0.7115 0.6881
vn -0.3933 0.8933 0.2177
vn -0.6519 0.7017 0.2876
vn -0.2967 0.7022 0.6472
vn -0.5769 0.7389 -0.3482
vn -0.6252 0.7115 -0.3208
vn -0.2683 0.7220 -0.6378
vn -0.3344 0.7052 -0.6252
vn -0.1633 0.6951 -0.7001
vn -0.1277 0.6853 -0.7170
vn -0.0238 0.7300 -0.6831
vn 0.0635 0.6916 -0.7195
vn 0.1372 0.7389 -0.6597
vn 0.2485 0.7072 -0.6619
vn 0.2885 0.7166 -0.6350
vn -0.9252 0.0221 0.3789
vn -0.8961 -0.0372 -0.4423
vn -0.7165 -0.6252 0.3094
vn -0.6759 -0.6045 -0.4216
vn -0.4354 -0.0421 -0.8992
vn -0.2647 -0.6852 -0.6785
vn -0.1994 0.0022 -0.9799
vn -0.1981 -0.0041 -0.9802
vn -0.0214 -0.0297 -0.9993
vn 0.0303 -0.0155 -0.9994
vn 0.2000 0.0012 -0.9798
vn 0.2008 -0.0033 -0.9796
vn 0.3803 -0.0255 -0.9245
vn 0.3024 -0.6896 -0.6581
vn 0.6285 -0.1109 -0.7699
vn 0.6832 -0.6421 -0.3477
vn 0.9797 0.0111 -0.2001
vn 0.0000 1.0000 0.0000
vn -0.0001 1.0000 0.0000
vn 0.0001 1.0000 0.0000
vn 0.0002 1.0000 0.0001
vn 0.0002 1.0000 -0.0001
vn 0.0001 1.0000 -0.0002
vn -0.0000 1.0000 0.0001
vn -0.0002 1.0000 -0.0001
vn -0.0003 1.0000 0.0001
vn -0.2756 -0.2391 -0.9311
vn -0.2716 0.2332 -0.9337
vn -0.6253 -0.6385 -0.4487
vn -0.7761 0.0013 -0.6307
vn -0.0000 -1.0000 -0.0000
vn 0.0024 -0.2625 -0.9649
vn 0.6155 -0.6442 -0.4540
vn -0.6956 -0.2004 -0.6899
vn 0.6773 -0.1621 -0.7176
vn 0.8316 0.0099 -0.5553
vn 0.9574 -0.0129 -0.2883
vn 0.9883 0.0073 -0.1522
vn 0.8943 -0.0028 -0.4474
vn 0.6950 0.0034 0.7190
vn 0.6201 -0.0486 0.7830
vn -0.1913 0.6596 -0.7269
vn -0.8456 0.0054 -0.5338
vn -0.3143 -0.0010 -0.9493
vn -0.0003 -0.0037 -1.0000
vn 0.1825 0.6547 -0.7335
vn 0.3227 -0.0029 -0.9465
vn -0.6933 -0.0031 0.7207
vn -0.6239 0.0487 0.7800
vn 0.0000 -1.0000 -0.0001
vn 0.0119 -0.6517 0.7584
vn 0.4534 -0.6529 0.6067
vn 0.0000 -1.0000 0.0001
vn -0.0845 -0.6434 0.7609
vn 0.2454 -0.1467 0.9583
vn -0.4591 -0.0257 0.8880
vn -0.0971 0.0193 0.9951
vn -0.2851 0.0095 0.9584
vn -0.2453 0.0051 0.9694
vn -0.0337 0.0307 0.9990
vn 0.0413 0.0077 0.9991
vn 0.2375 0.0320 0.9709
vn 0.3093 -0.0102 0.9509
vn 0.9553 -0.0059 0.2955
vn 0.9636 0.0403 0.2643
vn 0.5988 0.0036 0.8009
vn 0.0009 -0.9936 -0.1125
vn -0.0033 -0.9825 -0.1864
vn -0.0005 -0.9319 -0.3628
vn 0.0040 -0.8914 -0.4532
vn 0.0097 -0.8030 -0.5958
vn -0.2983 -0.3278 -0.8964
vn 0.2391 -0.3286 -0.9137
vn -0.9148 -0.0006 -0.4038
vn -0.7786 0.0037 -0.6275
vn -0.2282 0.3222 -0.9188
vn -0.9636 -0.0016 -0.2673
vn -0.9994 -0.0011 -0.0343
vn -0.9971 -0.0029 -0.0761
vn -0.0014 0.9936 -0.1126
vn 0.0551 0.8949 -0.4429
vn 0.0008 0.9317 -0.3633
vn -0.0051 0.8415 -0.5403
vn -0.0124 0.8001 -0.5998
vn 0.0026 0.2893 -0.9572
vn 0.1887 0.2827 -0.9405
vn 0.8275 0.0319 0.5605
vn 0.8154 -0.0311 0.5780
vn 0.9632 0.0009 -0.2689
vn 0.7793 -0.0011 -0.6267
vn 0.8141 0.0044 -0.5807
vn -0.7071 -0.0000 0.7071
vn -0.6497 0.0041 0.7602
vn 0.7071 -0.0000 0.7071
vn 0.0000 0.7071 0.7071
vn 0.0000 -0.7071 0.7071
vn 0.0022 -0.6521 0.7582
vn 0.0001 -0.7056 0.7086
vn 0.0022 -0.6513 0.7588
vn 0.0000 -0.0000 1.0000
usemtl Steel_-_Satin
s 1
f 1/1/1 2/2/2 3/3/3
f 1/1/1 4/4/4 2/2/2
f 2/2/2 4/4/4 5/5/5
f 6/6/6 7/7/7 4/8/4
f 4/8/4 7/7/7 8/9/8
f 4/4/4 8/10/8 5/5/5
f 6/11/6 9/12/9 7/13/7
f 7/7/7 9/14/9 10/15/10
f 10/15/10 9/14/9 11/16/11
f 11/16/11 9/14/9 12/17/12
f 11/16/11 12/17/12 13/18/13
f 11/16/11 13/18/13 14/19/14
f 14/19/14 13/18/13 15/20/15
f 14/19/14 15/20/15 16/21/16
f 17/22/17 18/23/18 19/24/19
f 17/22/17 19/24/19 15/25/15
f 15/20/15 19/26/19 16/21/16
f 17/22/17 20/27/20 18/23/18
f 18/23/18 20/27/20 21/28/21
f 21/28/21 20/27/20 22/29/22
f 22/29/22 20/27/20 23/30/23
f 22/29/22 23/30/23 24/31/24
f 22/32/22 24/33/24 25/34/25
f 25/34/25 24/33/24 26/35/26
f 26/35/26 24/33/24 27/36/27
f 26/35/26 27/36/27 28/37/28
f 28/37/28 27/36/27 29/38/29
f 28/37/28 29/38/29 30/39/30
f 30/39/30 29/38/29 1/40/1
f 30/39/30 1/40/1 3/41/3
f 18/23/31 21/28/32 31/42/33
f 31/42/33 21/28/32 32/43/34
f 21/44/32 22/32/35 32/45/34
f 32/45/34 22/32/35 33/46/36
f 33/46/36 22/32/35 25/34/37
f 33/46/36 25/34/37 34/47/38
f 34/47/38 25/34/37 26/35/39
f 34/47/38 26/35/39 35/48/40
f 35/48/40 26/35/39 28/37/41
f 35/48/40 28/37/41 36/49/42
f 36/49/42 28/37/41 30/39/43
f 36/49/42 30/39/43 37/50/44
f 37/50/44 30/39/43 3/41/45
f 37/50/44 3/41/45 38/51/46
f 38/52/46 3/3/45 2/2/47
f 12/53/48 39/54/49 40/55/50
f 12/53/48 40/55/50 13/56/51
f 13/56/51 40/55/50 20/27/52
f 40/55/50 41/57/50 20/27/52
f 41/57/50 23/30/53 20/27/52
f 41/57/50 42/58/48 23/30/53
f 23/30/53 42/58/48 24/31/54
f 24/31/54 42/58/48 43/59/54
f 24/31/54 43/59/54 27/60/54
f 27/60/54 43/59/54 44/61/54
f 27/60/54 44/61/54 29/62/49
f 29/62/49 44/61/54 45/63/49
f 45/63/49 1/64/55 29/62/49
f 1/64/55 45/63/49 39/54/49
f 1/64/55 39/54/49 9/12/56
f 1/64/55 9/12/56 4/65/4
f 4/65/4 9/12/56 6/11/6
f 9/12/56 39/54/49 12/53/48
f 20/27/52 17/22/17 13/56/51
f 13/56/51 17/22/17 15/25/15
f 46/66/57 47/67/58 48/68/59
f 48/68/59 47/67/58 49/69/60
f 46/70/57 50/71/61 51/72/61
f 46/70/57 51/72/61 52/73/62
f 52/73/62 51/72/61 53/74/63
f 46/70/57 48/75/59 50/71/61
f 50/71/61 48/75/59 54/76/64
f 53/74/63 51/72/61 55/77/65
f 53/78/63 56/79/66 52/80/67
f 52/80/67 56/79/66 57/81/68
f 45/82/69 55/83/65 51/84/70
f 45/82/69 51/84/70 39/85/71
f 48/86/59 49/87/60 54/88/64
f 54/88/64 49/87/60 58/89/72
f 54/88/64 58/89/72 41/90/73
f 41/90/73 58/89/72 42/91/74
f 42/91/74 58/89/72 43/92/75
f 43/92/75 58/89/72 59/93/76
f 43/92/75 59/93/76 44/94/77
f 44/94/77 59/93/76 55/95/65
f 55/95/65 59/93/76 56/96/66
f 55/95/65 56/96/66 53/97/63
f 55/95/65 45/98/69 44/94/77
f 40/99/78 50/100/79 54/101/64
f 40/102/78 54/103/64 41/104/73
f 51/105/70 50/106/79 39/107/71
f 39/107/71 50/106/79 40/108/78
f 32/109/34 33/110/36 60/111/61
f 60/111/61 33/110/36 34/112/61
f 34/112/61 35/113/61 60/111/61
f 60/111/61 35/113/61 36/114/61
f 60/111/61 36/114/61 37/115/44
f 60/111/61 37/115/44 38/116/46
f 60/111/61 38/116/46 61/117/80
f 61/117/80 38/116/46 62/118/61
f 61/117/80 62/118/61 63/119/81
f 62/118/61 64/120/82 63/119/81
f 60/111/61 65/121/83 32/109/34
f 32/109/34 65/121/83 31/122/33
f 31/122/33 65/121/83 66/123/84
f 66/124/84 16/21/85 19/26/86
f 66/124/84 19/26/86 31/125/33
f 31/125/33 19/26/86 18/126/31
f 7/7/87 10/15/88 63/127/81
f 63/127/81 10/15/88 61/128/89
f 61/128/89 10/15/88 11/16/90
f 61/128/89 11/16/90 60/129/91
f 60/129/91 11/16/90 14/19/92
f 60/129/91 14/19/92 65/130/93
f 65/130/93 14/19/92 16/21/85
f 65/130/93 16/21/85 66/124/84
f 62/131/94 5/5/95 8/10/96
f 62/131/94 8/10/96 64/132/82
f 64/133/82 8/9/96 63/127/81
f 63/127/81 8/9/96 7/7/87
f 67/134/97 68/135/98 69/136/99
f 69/136/99 68/135/98 70/137/100
f 69/136/99 70/137/100 71/138/101
f 71/138/101 70/137/100 72/139/102
f 71/138/101 72/139/102 73/140/103
f 70/141/104 74/142/105 72/143/102
f 72/143/102 74/142/105 75/144/106
f 70/145/104 76/146/107 74/147/105
f 76/146/107 70/145/104 77/148/108
f 77/148/108 70/145/104 68/149/109
f 77/148/110 78/150/111 76/146/112
f 76/146/112 78/150/111 79/151/113
f 76/146/112 79/151/113 74/147/114
f 57/152/115 73/153/103 52/154/62
f 52/154/62 73/153/103 72/143/102
f 52/154/62 72/143/102 46/155/57
f 46/155/57 72/143/102 47/156/58
f 47/156/58 72/143/102 75/144/106
f 47/156/58 75/144/106 80/157/116
f 73/153/103 57/152/115 80/157/116
f 80/157/116 57/152/115 47/156/58
f 74/142/114 79/158/113 75/144/106
f 75/144/106 79/158/113 80/157/116
f 78/159/117 67/160/118 69/161/119
f 71/162/120 79/163/121 69/161/119
f 69/161/119 79/163/121 78/159/117
f 79/158/121 71/164/120 73/153/103
f 79/158/121 73/153/103 80/157/116
f 81/165/122 67/166/118 82/167/123
f 82/167/123 67/166/118 78/168/117
f 83/169/124 84/170/124 68/171/124
f 68/171/124 84/170/124 77/172/124
f 81/165/125 83/169/125 67/166/125
f 67/166/125 83/169/125 68/171/125
f 84/170/126 82/167/127 77/172/128
f 77/172/128 82/167/127 78/168/129
f 82/167/130 84/170/130 81/165/130
f 81/165/130 84/170/130 83/169/130
f 49/69/48 56/173/54 58/174/72
f 58/174/72 56/173/54 59/175/76
f 56/173/54 49/69/48 47/67/58
f 56/173/54 47/67/58 57/176/115
f 2/2/47 5/5/95 38/52/46
f 38/52/46 5/5/95 62/131/94
