# Blender v2.79 (sub 0) OBJ File: ''
# www.blender.org
mtllib light.mtl
o Body1.001
v 0.049385 0.110495 -0.020605
v -0.003362 0.112084 -0.055575
v -0.044294 0.162831 -0.085833
v -0.000802 0.173392 -0.099064
v -0.041575 0.112821 -0.038130
v -0.092168 0.166992 -0.037211
v -0.077498 0.228941 -0.061459
v -0.042540 0.285943 -0.037347
v 0.008880 0.275652 -0.067246
v 0.084577 0.156804 -0.045336
v -0.047419 0.111515 0.018632
v -0.055080 0.138504 0.063021
v -0.083364 0.138529 0.010085
v -0.081328 0.189869 0.061686
v -0.100084 0.203447 0.017656
v -0.072970 0.248631 0.051574
v -0.052217 0.274307 0.050792
v 0.006747 0.284095 0.057590
v 0.078041 0.251501 0.044826
v 0.100389 0.186975 0.015872
v 0.078573 0.172981 0.062495
v 0.078200 0.135264 0.015877
v 0.038414 0.110930 0.034085
v -0.002136 0.111914 0.055484
v 0.059339 0.283614 -0.008995
v 0.002284 0.301347 -0.006884
v -0.090120 0.248903 -0.012656
v 0.099334 0.221190 -0.018090
v -0.042206 0.234466 0.087370
v 0.040103 0.234298 0.089332
v 0.054732 0.156341 0.076444
v -0.026374 0.196534 0.099104
v 0.000193 0.157237 0.093660
v 0.019419 0.198266 0.099735
v 0.006990 0.214216 -0.100373
v -0.023800 0.232833 -0.094940
v 0.044495 0.184178 -0.090718
v 0.060800 0.239946 -0.074255
v 0.047570 0.143187 -0.071785
v 0.051277 0.043269 -0.011648
v 0.011276 0.043065 -0.050255
v -0.036527 0.043051 -0.036316
v -0.050193 0.043040 0.011571
v -0.016941 0.043033 0.048645
v 0.032150 0.043029 0.040246
v 0.022641 0.021082 0.017028
v -0.026122 0.021186 0.010666
v 0.003084 0.021237 -0.028098
vt 0.609377 -0.684516
vt 0.139902 -0.902812
vt 0.439393 -1.313292
vt 0.522570 2.229641
vt 0.210310 2.532833
vt 0.090400 2.131191
vt 0.569624 1.174778
vt 0.294434 1.640783
vt 0.050625 1.236503
vt 0.068758 0.774332
vt 0.615987 0.470071
vt 0.139048 0.181184
vt 0.326032 -0.342849
vt -0.147093 -1.655498
vt -0.438243 -1.303637
vt -0.524657 -1.854681
vt -0.079843 -2.023815
vt -0.495175 -2.401974
vt -0.138005 2.470781
vt -0.542103 2.508852
vt -0.419071 2.042684
vt -0.140152 -0.105671
vt -0.359927 0.464228
vt -0.462774 -0.239236
vt -0.112262 -0.545323
vt -0.267923 -0.948732
vt -0.667017 -0.515463
vt -0.470198 1.201406
vt -0.395819 1.699668
vt -0.115959 -2.513353
vt 0.282586 -2.249650
vt 0.779867 -1.993343
vt 0.296273 -1.684265
vt -0.817222 1.984964
vt -0.788044 0.615253
vt -0.914711 -1.252359
vt -1.025499 -2.246209
vt -1.025499 2.134962
vt -1.132636 -0.579084
vt -1.102068 -0.015765
vt 1.199130 2.459407
vt 0.877805 1.782307
vt 1.093044 1.031064
vt 0.874854 -0.291735
vt 1.055630 -1.248737
vt 0.512528 -2.532833
vt 0.844278 2.532833
vt 0.984991 -2.456455
vt 0.275826 -0.151575
vt -0.275826 -0.087959
vt -0.275826 -0.539760
vt 0.275826 -0.702718
vt -0.275826 -0.943400
vt 0.275826 -1.141050
vt -0.275826 -1.206372
vt 0.275826 1.306903
vt -0.275826 1.166219
vt 0.275826 1.096355
vt -0.275826 0.762544
vt 0.275826 0.679611
vt -0.275826 0.358851
vt 0.275826 0.292575
vt -0.132605 0.192641
vt 0.132605 -0.065969
vt 0.132605 0.269138
vt 0.132605 0.571908
vt -0.132605 0.787312
vt 0.132605 0.852544
vt -0.132605 -0.884161
vt 0.132605 -0.937534
vt 0.132605 -0.707549
vt -0.132605 -0.438655
vt 0.132605 -0.404820
vt 0.165572 0.017978
vt -0.098326 0.131910
vt -0.062924 -0.154224
vn 0.4161 -0.5676 -0.7104
vn 0.8011 -0.4803 -0.3571
vn 0.0099 -0.4373 -0.8992
vn -0.7434 0.2721 -0.6110
vn -0.8805 -0.2910 -0.3743
vn -0.8662 0.4882 -0.1069
vn 0.1093 0.7448 -0.6582
vn -0.4225 0.8387 -0.3437
vn 0.0171 0.9990 -0.0412
vn 0.5700 0.8166 -0.0910
vn 0.5980 0.3983 -0.6955
vn 0.9500 0.2381 -0.2021
vn 0.8293 -0.3590 -0.4282
vn -0.8095 -0.4869 0.3280
vn -0.0604 -0.4682 0.8815
vn -0.5326 -0.5583 0.6361
vn -0.8171 -0.5678 0.0995
vn -0.7876 -0.0979 0.6083
vn -0.9867 0.0366 0.1585
vn -0.7711 0.4271 0.4723
vn 0.9806 -0.1076 0.1638
vn 0.7493 0.5083 0.4245
vn 0.7707 -0.2158 0.5995
vn 0.7708 -0.6126 0.1749
vn 0.6956 -0.4366 0.5706
vn 0.5075 -0.4396 0.7410
vn 0.0894 0.8297 0.5510
vn -0.4697 0.7705 0.4309
vn -0.4539 -0.3432 -0.8223
vn -0.6974 -0.4383 -0.5670
vn -0.3663 0.3478 0.8630
vn 0.3729 0.3498 0.8594
vn -0.0041 -0.4346 0.9006
vn -0.2707 -0.0241 0.9624
vn 0.1994 0.0157 0.9798
vn -0.0150 -0.2864 -0.9580
vn -0.2488 0.3441 -0.9054
vn 0.1010 0.1948 -0.9756
vn 0.4685 -0.1238 -0.8747
vn 0.9762 -0.0463 -0.2118
vn 0.2612 -0.0755 -0.9623
vn -0.7167 -0.1029 -0.6898
vn -0.9723 -0.0332 0.2312
vn -0.3597 -0.0626 0.9310
vn 0.6532 -0.0720 0.7537
vn 0.3481 -0.9011 0.2584
vn 0.5874 -0.7942 -0.1558
vn 0.4006 -0.7430 0.5361
vn -0.1742 -0.8009 0.5729
vn -0.3973 -0.9032 0.1625
vn -0.6611 -0.7390 0.1297
vn -0.4380 -0.7986 -0.4127
vn 0.0553 -0.9018 -0.4286
vn 0.1773 -0.7347 -0.6548
usemtl Steel_-_Satin.001
s 1
f 39/1/1 1/2/2 2/3/3
f 7/4/4 6/5/5 27/6/6
f 9/7/7 8/8/8 26/9/9
f 9/7/7 26/9/9 25/10/10
f 9/7/7 25/10/10 38/11/11
f 38/11/11 25/10/10 28/12/12
f 38/11/11 28/12/12 10/13/13
f 39/1/1 10/13/13 1/2/2
f 11/14/14 24/15/15 12/16/16
f 13/17/17 12/16/16 14/18/18
f 15/19/19 14/20/18 16/21/20
f 20/22/21 19/23/22 21/24/23
f 22/25/24 21/24/23 23/26/25
f 23/26/25 21/24/23 31/27/26
f 23/26/25 1/2/2 22/25/24
f 21/24/23 22/25/24 20/22/21
f 19/23/22 25/10/10 18/28/27
f 18/28/27 25/10/10 26/9/9
f 18/28/27 26/9/9 17/29/28
f 16/21/20 17/29/28 27/6/6
f 16/21/20 27/6/6 15/19/19
f 14/18/18 15/30/19 13/17/17
f 12/16/16 13/17/17 11/14/14
f 20/22/21 28/12/12 19/23/22
f 19/23/22 28/12/12 25/10/10
f 17/29/28 26/9/9 8/8/8
f 17/29/28 8/8/8 27/6/6
f 15/30/19 6/31/5 13/17/17
f 6/31/5 3/32/29 5/33/30
f 16/21/20 14/20/18 29/34/31
f 19/23/22 18/28/27 30/35/32
f 23/26/25 31/27/26 24/15/15
f 16/21/20 29/34/31 17/29/28
f 19/23/22 30/35/32 21/24/23
f 21/24/23 30/35/32 31/27/26
f 12/16/16 24/15/15 33/36/33
f 12/16/16 33/36/33 32/37/34
f 12/16/16 32/37/34 14/18/18
f 14/20/18 32/38/34 29/34/31
f 17/29/28 29/34/31 18/28/27
f 18/28/27 29/34/31 30/35/32
f 31/27/26 33/36/33 24/15/15
f 30/35/32 34/39/35 31/27/26
f 31/27/26 34/39/35 33/36/33
f 29/34/31 32/38/34 30/35/32
f 30/35/32 32/38/34 34/40/35
f 33/36/33 34/39/35 32/37/34
f 4/41/36 36/42/37 35/43/38
f 35/43/38 37/44/39 4/45/36
f 4/45/36 2/3/3 3/32/29
f 7/46/4 3/32/29 6/31/5
f 35/43/38 36/42/37 38/11/11
f 35/43/38 38/11/11 37/44/39
f 37/44/39 39/1/1 4/45/36
f 3/47/29 7/4/4 36/42/37
f 36/42/37 9/7/7 38/11/11
f 4/45/36 39/1/1 2/3/3
f 36/42/37 7/4/4 8/8/8
f 36/42/37 8/8/8 9/7/7
f 37/44/39 38/11/11 10/13/13
f 37/44/39 10/13/13 39/1/1
f 7/4/4 27/6/6 8/8/8
f 6/5/5 15/19/19 27/6/6
f 28/12/12 20/22/21 10/13/13
f 10/13/13 20/22/21 22/25/24
f 10/13/13 22/25/24 1/2/2
f 3/32/29 2/3/3 5/33/30
f 11/14/14 13/17/17 5/33/30
f 36/48/37 4/45/36 3/32/29
f 6/31/5 5/33/30 13/17/17
f 1/49/2 40/50/40 41/51/41
f 1/49/2 41/51/41 2/52/3
f 2/52/3 41/51/41 42/53/42
f 2/52/3 42/53/42 5/54/30
f 5/54/30 42/53/42 43/55/43
f 5/56/30 43/57/43 11/58/14
f 11/58/14 43/57/43 44/59/44
f 11/58/14 44/59/44 24/60/15
f 24/60/15 44/59/44 45/61/45
f 24/60/15 45/61/45 23/62/25
f 23/62/25 45/61/45 40/50/40
f 23/62/25 40/50/40 1/49/2
f 46/63/46 40/64/47 45/65/48
f 46/63/46 45/65/48 44/66/49
f 46/63/46 44/66/49 47/67/50
f 47/67/50 44/66/49 43/68/51
f 47/69/50 43/70/51 42/71/52
f 47/69/50 42/71/52 48/72/53
f 48/72/53 42/71/52 41/73/54
f 48/72/53 41/73/54 40/64/47
f 48/72/53 40/64/47 46/63/46
f 48/74/53 46/75/46 47/76/50
