# Blender v2.79 (sub 0) OBJ File: ''
# www.blender.org
mtllib desk_reducedPoly.mtl
o Body2
v 1.225459 0.050944 0.612219
v 1.239912 0.058189 0.593007
v 1.221795 0.063605 0.607812
v 1.198971 0.051145 0.623716
v 1.198275 0.063980 0.617724
v 1.248442 0.053675 0.573986
v 1.238061 0.068701 0.572353
v 1.223266 0.074203 0.585134
v 1.200520 0.074154 0.602628
v -1.200917 0.074034 0.603140
v -1.198412 0.062963 0.618520
v -1.199105 0.049676 0.623941
v -1.226740 0.074022 0.580671
v -1.242723 0.063980 0.573276
v -1.240126 0.058189 0.592637
v -1.222391 0.063605 0.607355
v -1.248716 0.051145 0.573971
v -1.225700 0.050944 0.612034
v -1.224447 0.074241 -0.581565
v -1.238351 0.067219 -0.581620
v -1.248442 0.053676 -0.573986
v -1.209767 0.074346 -0.598112
v -1.197188 0.069354 -0.612187
v -1.221435 0.059464 -0.612371
v -1.198849 0.054790 -0.623144
v -1.237034 0.050945 -0.600700
v 1.200946 0.073988 -0.603232
v 1.198412 0.062964 -0.618520
v 1.199105 0.049676 -0.623941
v 1.226667 0.074059 -0.580636
v 1.242723 0.063980 -0.573276
v 1.240126 0.058190 -0.592637
v 1.222391 0.063605 -0.607355
v 1.248716 0.051145 -0.573971
v 1.225700 0.050945 -0.612034
v -1.207422 -1.874998 -0.623088
v -1.082131 0.000000 -0.623094
v 1.079489 0.000000 -0.622361
v 1.213070 -1.874998 -0.621855
v 1.079536 -1.874998 -0.621519
v -1.077493 -1.874998 -0.621007
v 1.248087 -1.874998 -0.582424
v 1.248094 0.000000 -0.457132
v 1.247361 -0.000000 0.454490
v 1.246854 -1.874998 0.588070
v 1.246518 -1.874998 0.454536
v 1.249000 -1.874998 -0.467459
v 1.207422 -1.874998 0.623087
v -1.246854 -1.874998 -0.588071
v -1.095381 -1.874998 -0.476119
v -1.246518 -1.874998 -0.454537
v -1.158576 -1.874998 -0.423752
v -1.217281 -1.874998 -0.424225
v -1.187774 -1.874998 -0.416730
v -1.042279 -1.874998 -0.547156
v -1.047969 -1.874998 -0.589818
v 1.095381 -1.874998 0.476117
v 1.077493 -1.874998 0.621006
v 1.042279 -1.874998 0.547155
v 1.047969 -1.874998 0.589817
v 1.158576 -1.874998 0.423751
v 1.187774 -1.874998 0.416729
v 1.217281 -1.874998 0.424224
v 1.082131 -0.000000 0.623094
v -1.079489 -0.000000 0.622361
v -1.213070 -1.874998 0.621854
v -1.079536 -1.874998 0.621518
v 1.101118 -1.874998 -0.470382
v 1.165337 -1.874998 -0.420366
v 1.200294 -1.874998 -0.418044
v 1.233456 -1.874998 -0.435587
v 1.048751 -1.874998 -0.533577
v 1.049224 -1.874998 -0.592282
v 1.041729 -1.874998 -0.562775
v -1.248087 -1.874998 0.582422
v -1.101118 -1.874998 0.470381
v -1.249000 -1.874998 0.467458
v -1.165337 -1.874998 0.420364
v -1.233456 -1.874998 0.435586
v -1.200294 -1.874998 0.418043
v -1.048751 -1.874998 0.533576
v -1.049224 -1.874998 0.592281
v -1.041729 -1.874998 0.562774
v -1.247361 0.000000 -0.454490
v -1.214818 0.000000 -0.422970
v -1.172155 0.000000 -0.417280
v -1.101118 0.000000 -0.470381
v -1.048751 0.000000 -0.533576
v -1.041729 0.000000 -0.562774
v -1.049224 0.000000 -0.592281
v 1.214818 -0.000000 0.422970
v 1.172155 -0.000000 0.417280
v 1.101118 -0.000000 0.470381
v 1.048751 -0.000000 0.533576
v -1.158576 -0.000000 0.423752
v -1.187774 -0.000000 0.416730
v -1.217281 -0.000000 0.424224
v -1.248094 -0.000000 0.457132
v -1.095381 -0.000000 0.476118
v -1.042279 -0.000000 0.547155
v -1.047969 -0.000000 0.589818
v 1.047969 0.000000 -0.589818
v 1.042279 0.000000 -0.547155
v 1.095381 0.000000 -0.476118
v 1.158576 0.000000 -0.423752
v 1.187774 0.000000 -0.416730
v 1.217281 0.000000 -0.424224
v 1.041729 -0.000000 0.562774
v 1.049224 -0.000000 0.592281
vt 0.852667 0.380520
vt 0.857273 0.382006
vt 0.852775 0.383076
vt 0.847512 0.380633
vt 0.848238 0.383218
vt 0.861071 0.381204
vt 0.859889 0.384247
vt 0.765738 0.504427
vt 0.769745 0.504835
vt 0.767276 0.507775
vt 0.762876 0.508023
vt 0.763884 0.512268
vt 0.760951 0.512672
vt 0.762900 0.987248
vt 0.759913 0.986710
vt 0.759912 0.505006
vt 0.758974 0.879121
vt 0.757340 0.504303
vt 0.756323 0.878710
vt 0.767235 0.992363
vt 0.768646 0.995494
vt 0.764896 0.994954
vt 0.762064 0.991459
vt 0.759913 0.891506
vt 0.757427 0.892489
vt 0.758474 0.888816
vt 0.759277 0.884210
vt 0.756758 0.884290
vt 0.991976 0.992323
vt 0.991972 0.995049
vt 0.764833 0.003604
vt 0.761088 0.172823
vt 0.758469 0.170350
vt 0.762336 0.002692
vt 0.995181 0.989425
vt 0.997901 0.986926
vt 0.997914 0.991689
vt 0.761508 0.182781
vt 0.758646 0.184148
vt 0.759523 0.179564
vt 0.757874 0.175771
vt 0.997059 0.512610
vt 1.000000 0.513081
vt 1.000000 0.987210
vt 0.385569 0.000000
vt 0.374334 0.315755
vt 0.371718 0.315085
vt 0.992699 0.507515
vt 0.991269 0.504303
vt 0.995004 0.504805
vt 0.997851 0.508336
vt 0.374686 0.328264
vt 0.372169 0.328987
vt 0.373414 0.325078
vt 0.374427 0.320556
vt 0.371923 0.320337
vt 0.382626 0.498619
vt 0.385569 0.496968
vt 0.385569 0.181450
vt 0.748404 0.199673
vt 0.764833 0.504285
vt 0.754878 0.488051
vt 0.392819 0.504303
vt 0.392420 0.486433
vt 0.334646 0.506282
vt 0.333355 0.876736
vt 0.316378 0.875674
vt 0.000000 0.322995
vt 0.000155 0.333426
vt 0.363311 0.346328
vt 0.371229 0.480975
vt 0.010323 0.506270
vt 0.009166 0.486488
vt 0.001148 0.350538
vt 0.861071 0.000022
vt 0.850905 0.000000
vt 0.385583 0.171075
vt 0.804372 0.445016
vt 0.796730 0.451923
vt 0.775136 0.422794
vt 0.804372 0.418600
vt 0.787381 0.412467
vt 0.798733 0.412589
vt 0.793031 0.411092
vt 0.771606 0.451447
vt 0.764833 0.436820
vt 0.765912 0.445262
vt 0.804372 0.404185
vt 0.796730 0.411092
vt 0.775136 0.381963
vt 0.771606 0.410616
vt 0.764833 0.395989
vt 0.765912 0.404431
vt 0.804372 0.377769
vt 0.787381 0.371635
vt 0.793031 0.370261
vt 0.798733 0.371758
vt 0.386285 0.522820
vt 0.747462 0.523146
vt 0.746816 0.860735
vt 0.385569 0.900888
vt 0.385615 0.880080
vt 0.386280 0.543358
vt 0.804238 0.485847
vt 0.796596 0.492754
vt 0.775002 0.463625
vt 0.774364 0.492877
vt 0.765299 0.476304
vt 0.764833 0.483218
vt 0.768209 0.489787
vt 0.804238 0.459431
vt 0.787247 0.453298
vt 0.798599 0.453420
vt 0.792897 0.451923
vt 0.386217 0.911128
vt 0.843643 0.485847
vt 0.836001 0.492754
vt 0.814407 0.463625
vt 0.813769 0.492877
vt 0.804704 0.476304
vt 0.807614 0.489787
vt 0.804238 0.483218
vt 0.843643 0.459431
vt 0.826653 0.453298
vt 0.838004 0.453420
vt 0.832302 0.451923
vt 0.364446 0.506496
vt 0.364446 0.876508
vt 0.356383 0.876592
vt 0.355735 0.506565
vt 0.350994 0.876426
vt 0.348556 0.506270
vt 0.316378 0.506567
vt 0.316378 0.876959
vt 0.311483 0.877081
vt 0.299453 0.506598
vt 0.295713 0.877071
vt 0.278696 0.876863
vt 0.283627 0.506444
vt 0.278619 0.506270
vt 0.348556 0.506270
vt 0.348556 0.876603
vt 0.341655 0.876801
vt 0.343326 0.506377
vt 0.009059 0.478165
vt 0.371130 0.472039
vt 0.009152 0.473179
vt 0.371309 0.465590
vt 0.278619 0.506504
vt 0.278619 0.877253
vt 0.273807 0.877306
vt 0.261772 0.506485
vt 0.258089 0.877267
vt 0.241022 0.877123
vt 0.245921 0.506371
vt 0.842747 0.370495
vt 0.842687 0.000086
vt 0.847512 0.370648
vt 0.847512 0.000313
vt 0.752035 0.033744
vt 0.389542 0.030380
vt 0.751975 0.028712
vt 0.389509 0.023393
vt 0.752008 0.019795
vt 0.389584 0.016665
vt 0.827209 0.000000
vt 0.827061 0.370433
vt 0.809972 0.370576
vt 0.811348 0.000092
vt 0.379913 0.506504
vt 0.379913 0.876986
vt 0.371775 0.877003
vt 0.371152 0.506508
vt 0.366660 0.876863
vt 0.364446 0.506270
vt 0.806225 0.000253
vt 0.392441 0.478119
vt 0.754907 0.479093
vt 0.392530 0.472810
vt 0.755052 0.472104
vt 0.765076 0.370261
vt 0.764833 0.000400
vt 0.769379 0.000166
vt 0.781626 0.370021
vt 0.784883 0.000000
vt 0.800623 0.000077
vt 0.797489 0.370065
vt 0.802774 0.370261
vt 0.806225 0.000374
vt 0.861071 0.370710
vt 0.861373 0.000141
vt 0.866072 0.370537
vt 0.868264 0.000000
vt 0.874789 0.370504
vt 0.874789 0.000074
vt 0.240837 0.506270
vt 0.748458 0.536755
vt 0.387504 0.557795
vt 0.386793 0.551743
vt 0.747967 0.532013
vt 0.000000 0.967242
vt 0.000000 0.539634
vt 0.005956 0.960730
vt 0.006295 0.545867
vt 0.011662 0.959246
vt 0.014545 0.546990
vt 0.017308 0.960633
vt 0.029532 0.970988
vt 0.028278 0.536480
vt 0.039805 0.985037
vt 0.038401 0.523976
vt 0.202437 0.982294
vt 0.201032 0.521233
vt 0.212559 0.969789
vt 0.211305 0.535282
vt 0.226292 0.959280
vt 0.223529 0.545637
vt 0.229176 0.547024
vt 0.234542 0.960403
vt 0.234881 0.545539
vt 0.240837 0.966636
vt 0.240837 0.539028
vt 0.039757 0.518199
vt 0.038305 0.512363
vt 0.202130 0.512793
vt 0.031940 0.506270
vt 0.208223 0.506353
vt 0.201081 0.988070
vt 0.038707 0.993476
vt 0.202532 0.993907
vt 0.032614 0.999916
vt 0.208897 1.000000
vt 0.390023 0.000000
vt 0.748549 0.153003
vt 0.386091 0.151622
vn 0.5852 0.1453 0.7977
vn 0.8030 0.4008 0.4411
vn 0.4530 0.6364 0.6243
vn 0.1620 0.1643 0.9730
vn 0.1179 0.6338 0.7645
vn 0.9673 0.2088 0.1443
vn 0.6208 0.7799 0.0800
vn 0.2653 0.9445 0.1937
vn 0.0744 0.9406 0.3312
vn -0.0835 0.9440 0.3192
vn -0.1284 0.6107 0.7814
vn -0.2597 0.1474 0.9544
vn -0.3435 0.9170 0.2027
vn -0.7265 0.6754 0.1266
vn -0.8014 0.4034 0.4417
vn -0.4654 0.6395 0.6119
vn -0.9720 0.2049 0.1152
vn -0.6240 0.1861 0.7589
vn -0.3116 0.9405 -0.1358
vn -0.6647 0.7119 -0.2268
vn -0.9306 0.2755 -0.2411
vn -0.2393 0.9205 -0.3090
vn -0.1144 0.8055 -0.5814
vn -0.4825 0.4492 -0.7519
vn -0.1216 0.3128 -0.9420
vn -0.7498 0.2295 -0.6206
vn 0.0895 0.9396 -0.3302
vn 0.1302 0.6097 -0.7819
vn 0.2597 0.1472 -0.9544
vn 0.3359 0.9189 -0.2070
vn 0.7264 0.6754 -0.1271
vn 0.8012 0.4038 -0.4416
vn 0.4656 0.6395 -0.6117
vn 0.9720 0.2049 -0.1152
vn 0.6240 0.1861 -0.7589
vn -0.2743 -0.6517 -0.7072
vn 0.1667 -0.1427 -0.9756
vn -0.1968 -0.1371 -0.9708
vn 0.2906 -0.6316 -0.7188
vn -0.3753 0.0342 -0.9263
vn 0.3822 -0.0008 -0.9241
vn 0.7027 -0.6534 -0.2816
vn 0.9737 -0.1464 0.1745
vn 0.9718 -0.1321 -0.1954
vn 0.7179 -0.6309 0.2943
vn 0.7210 -0.6346 -0.2782
vn 0.7349 -0.6608 0.1528
vn 0.2828 -0.6506 0.7048
vn -0.7188 -0.6316 -0.2906
vn 0.0000 -1.0000 -0.0000
vn 0.3487 -0.6616 0.6639
vn -0.0051 -0.6572 0.7537
vn 0.7446 -0.6386 0.1944
vn 0.6901 -0.6443 -0.3296
vn -0.7446 -0.6386 -0.1944
vn -0.6901 -0.6443 0.3296
vn 0.3814 -0.6505 -0.6568
vn -0.1681 -0.1475 0.9747
vn 0.1968 -0.1371 0.9708
vn -0.2906 -0.6316 0.7188
vn 0.3753 0.0342 0.9263
vn -0.3822 -0.0008 0.9241
vn 0.5495 -0.6442 0.5320
vn -0.6568 -0.6505 -0.3814
vn -0.7537 -0.6572 -0.0051
vn -0.7027 -0.6534 0.2816
vn 0.2721 -0.6523 -0.7074
vn -0.1583 -0.6510 -0.7424
vn 0.6568 -0.6505 0.3814
vn 0.7537 -0.6572 0.0051
vn -0.9727 -0.1291 0.1930
vn -0.9262 -0.0350 0.3753
vn -0.5022 -0.0003 0.8648
vn -0.4361 0.0010 0.8999
vn 0.2457 -0.0093 0.9693
vn 0.6895 0.0010 0.7243
vn 0.7243 -0.0010 0.6895
vn 0.8829 0.0010 0.4696
vn 1.0000 0.0010 -0.0068
vn 0.8611 0.0006 -0.5084
vn 0.4361 0.0010 -0.8999
vn 0.0068 -0.0010 -1.0000
vn -0.2457 -0.0093 -0.9693
vn -0.4696 -0.0010 -0.8829
vn -0.6895 0.0010 -0.7243
vn -0.7243 -0.0010 -0.6895
vn -0.8829 0.0010 -0.4696
vn 0.4694 0.0007 -0.8830
vn -0.0064 0.0010 -1.0000
vn -0.5082 0.0016 -0.8612
vn -0.7185 -0.0017 -0.6956
vn -0.9732 -0.1448 -0.1785
vn -0.9822 -0.0007 -0.1881
vn 0.6964 -0.0006 -0.7176
vn 0.7243 0.0010 -0.6895
vn 0.9693 -0.0093 -0.2457
vn 0.8829 -0.0010 -0.4696
vn 0.8999 0.0010 0.4361
vn -0.8999 0.0010 -0.4361
vn -0.9693 -0.0093 0.2457
vn -0.8829 -0.0010 0.4696
vn -0.7243 0.0010 0.6895
vn -0.6964 -0.0006 0.7176
vn -0.3504 0.0096 0.9366
vn -0.4694 0.0007 0.8830
vn 0.0064 0.0010 1.0000
vn 0.2085 -0.0013 0.9780
vn 0.5082 0.0016 0.8612
vn -1.0000 0.0010 0.0068
vn -0.8611 0.0006 0.5084
usemtl Steel_-_Satin
s 1
f 1/1/1 2/2/2 3/3/3
f 1/1/1 3/3/3 4/4/4
f 4/4/4 3/3/3 5/5/5
f 6/6/6 7/7/7 2/2/2
f 2/8/2 7/9/7 8/10/8
f 2/8/2 8/10/8 3/11/3
f 3/11/3 8/10/8 9/12/9
f 3/11/3 9/12/9 5/13/5
f 9/12/9 10/14/10 5/13/5
f 5/13/5 10/14/10 11/15/11
f 5/16/5 11/17/11 4/18/4
f 4/18/4 11/17/11 12/19/12
f 13/20/13 14/21/14 15/22/15
f 13/20/13 15/22/15 16/23/16
f 13/20/13 16/23/16 10/14/10
f 10/14/10 16/23/16 11/15/11
f 14/24/14 17/25/17 15/26/15
f 16/27/16 15/26/15 18/28/18
f 16/27/16 18/28/18 11/17/11
f 11/17/11 18/28/18 12/19/12
f 13/20/13 19/29/19 20/30/20
f 13/20/13 20/30/20 14/21/14
f 14/31/14 20/32/20 21/33/21
f 14/31/14 21/33/21 17/34/17
f 22/35/22 23/36/23 24/37/24
f 22/35/22 24/37/24 19/29/19
f 19/29/19 24/37/24 20/30/20
f 23/38/23 25/39/25 24/40/24
f 24/40/24 26/41/26 20/32/20
f 20/32/20 26/41/26 21/33/21
f 22/35/22 27/42/27 23/36/23
f 23/36/23 27/42/27 28/43/28
f 23/36/23 28/43/28 25/44/25
f 25/45/25 28/46/28 29/47/29
f 30/48/30 31/49/31 32/50/32
f 30/48/30 32/50/32 33/51/33
f 30/48/30 33/51/33 27/42/27
f 27/42/27 33/51/33 28/43/28
f 31/52/31 34/53/34 32/54/32
f 33/55/33 32/54/32 35/56/35
f 33/55/33 35/56/35 28/46/28
f 28/46/28 35/56/35 29/47/29
f 6/57/6 34/53/34 31/52/31
f 6/57/6 31/52/31 7/58/7
f 7/9/7 31/49/31 30/48/30
f 7/9/7 30/48/30 8/10/8
f 36/59/36 25/39/25 37/60/37
f 37/60/37 25/39/25 29/61/29
f 37/60/37 29/61/29 38/62/38
f 38/62/38 29/61/29 39/63/39
f 38/62/38 39/63/39 40/64/40
f 37/65/37 41/66/41 36/67/36
f 39/68/39 29/47/29 35/56/35
f 39/68/39 35/56/35 42/69/42
f 42/69/42 35/56/35 32/54/32
f 42/69/42 32/54/32 34/53/34
f 42/69/42 34/53/34 43/70/43
f 43/70/43 34/53/34 6/57/6
f 43/70/43 6/57/6 44/71/44
f 44/71/44 6/57/6 45/72/45
f 44/71/44 45/72/45 46/73/46
f 43/70/43 47/74/47 42/69/42
f 45/75/45 6/6/6 2/2/2
f 45/75/45 2/2/2 1/1/1
f 45/75/45 1/1/1 48/76/48
f 48/76/48 1/1/1 4/4/4
f 9/12/9 8/10/8 10/14/10
f 10/14/10 8/10/8 13/20/13
f 8/10/8 30/48/30 13/20/13
f 13/20/13 30/48/30 19/29/19
f 19/29/19 30/48/30 22/35/22
f 22/35/22 30/48/30 27/42/27
f 49/77/49 21/33/21 26/41/26
f 49/77/49 26/41/26 36/59/36
f 36/59/36 26/41/26 24/40/24
f 36/59/36 24/40/24 25/39/25
f 49/78/49 36/79/36 50/80/50
f 49/78/49 50/80/50 51/81/50
f 51/81/50 50/80/50 52/82/51
f 51/81/50 52/82/51 53/83/50
f 53/83/50 52/82/51 54/84/52
f 50/80/50 36/79/36 41/85/50
f 50/80/50 41/85/50 55/86/53
f 55/86/53 41/85/50 56/87/54
f 45/88/45 48/89/48 57/90/50
f 57/90/50 48/89/48 58/91/50
f 57/90/50 58/91/50 59/92/55
f 59/92/55 58/91/50 60/93/56
f 45/88/45 57/90/50 46/94/46
f 46/94/46 57/90/50 61/95/50
f 61/95/50 62/96/50 46/94/46
f 46/94/46 62/96/50 63/97/57
f 48/98/48 4/18/4 64/99/58
f 64/99/58 4/18/4 12/19/12
f 64/99/58 12/19/12 65/100/59
f 65/100/59 12/19/12 66/101/60
f 65/100/59 66/101/60 67/102/61
f 64/99/58 58/103/62 48/98/48
f 39/104/39 42/105/42 68/106/50
f 42/105/42 47/107/47 68/106/50
f 68/106/50 47/107/47 69/108/50
f 69/108/50 47/107/47 70/109/50
f 70/109/50 47/107/47 71/110/63
f 39/104/39 68/106/50 40/111/50
f 40/111/50 68/106/50 72/112/50
f 40/111/50 72/112/50 73/113/64
f 73/113/64 72/112/50 74/114/65
f 66/101/60 12/19/12 18/28/18
f 66/101/60 18/28/18 75/115/66
f 75/115/66 18/28/18 15/26/15
f 75/115/66 15/26/15 17/25/17
f 66/116/60 75/117/66 76/118/50
f 76/118/50 75/117/66 77/119/50
f 76/118/50 77/119/50 78/120/67
f 78/120/67 77/119/50 79/121/50
f 78/120/67 79/121/50 80/122/68
f 66/116/60 76/118/50 67/123/50
f 67/123/50 76/118/50 81/124/50
f 67/123/50 81/124/50 82/125/69
f 82/125/69 81/124/50 83/126/70
f 84/127/71 51/128/72 53/129/73
f 84/127/71 53/129/73 85/130/74
f 85/130/74 53/129/73 54/131/52
f 85/130/74 54/131/52 86/132/75
f 86/133/75 54/134/52 52/135/51
f 86/133/75 52/135/51 87/136/76
f 87/136/76 52/135/51 50/137/77
f 55/138/53 88/139/78 50/137/77
f 50/137/77 88/139/78 87/136/76
f 88/139/78 55/138/53 89/140/79
f 89/141/79 55/142/53 56/143/54
f 89/141/79 56/143/54 90/144/80
f 90/144/80 56/143/54 41/66/41
f 90/144/80 41/66/41 37/65/37
f 44/71/44 46/73/46 63/145/57
f 44/71/44 63/145/57 91/146/81
f 91/146/81 63/145/57 62/147/82
f 91/146/81 62/147/82 92/148/83
f 92/149/83 62/150/82 61/151/84
f 92/149/83 61/151/84 93/152/85
f 93/152/85 61/151/84 57/153/86
f 59/154/55 94/155/87 57/153/86
f 57/153/86 94/155/87 93/152/85
f 95/156/88 78/157/67 96/158/89
f 96/158/89 78/157/67 80/159/68
f 96/160/89 80/161/68 97/162/90
f 97/162/90 80/161/68 79/163/91
f 97/162/90 79/163/91 98/164/92
f 98/164/92 79/163/91 77/165/93
f 78/157/67 95/156/88 76/166/94
f 76/166/94 95/156/88 99/167/95
f 100/168/96 81/169/97 99/167/95
f 99/167/95 81/169/97 76/166/94
f 65/170/59 67/171/61 82/172/69
f 65/170/59 82/172/69 101/173/98
f 101/173/98 82/172/69 83/174/70
f 101/173/98 83/174/70 100/175/96
f 100/168/96 83/176/70 81/169/97
f 38/62/38 40/64/40 73/177/64
f 38/62/38 73/177/64 102/178/99
f 102/178/99 73/177/64 74/179/65
f 102/178/99 74/179/65 103/180/100
f 103/181/100 74/182/65 72/183/101
f 103/181/100 72/183/101 104/184/102
f 104/184/102 72/183/101 68/185/103
f 69/186/104 105/187/105 68/185/103
f 68/185/103 105/187/105 104/184/102
f 105/187/105 69/186/104 106/188/106
f 106/188/106 69/186/104 70/189/107
f 106/190/106 70/191/107 107/192/108
f 107/192/108 70/191/107 71/193/63
f 107/192/108 71/193/63 43/194/43
f 43/194/43 71/193/63 47/195/47
f 94/155/87 59/154/55 108/196/109
f 108/197/109 59/198/55 60/199/56
f 108/197/109 60/199/56 109/200/110
f 109/200/110 60/199/56 58/103/62
f 109/200/110 58/103/62 64/99/58
f 64/201/58 65/202/59 109/203/50
f 109/203/50 65/202/59 101/204/50
f 109/203/50 101/204/50 108/205/50
f 108/205/50 101/204/50 100/206/50
f 108/205/50 100/206/50 94/207/50
f 94/207/50 100/206/50 93/208/50
f 93/208/50 100/206/50 99/209/50
f 93/208/50 99/209/50 92/210/50
f 92/210/50 99/209/50 95/211/50
f 92/210/50 95/211/50 105/212/50
f 105/212/50 95/211/50 86/213/50
f 105/212/50 86/213/50 104/214/50
f 104/214/50 86/213/50 87/215/50
f 104/214/50 87/215/50 103/216/50
f 103/216/50 87/215/50 88/217/50
f 103/216/50 88/217/50 89/218/50
f 103/216/50 89/218/50 102/219/50
f 102/219/50 89/218/50 90/220/50
f 102/219/50 90/220/50 38/221/38
f 38/221/38 90/220/50 37/222/37
f 86/213/50 95/211/50 96/223/50
f 86/213/50 96/223/50 97/224/50
f 86/213/50 97/224/50 85/225/50
f 85/225/50 97/224/50 98/226/92
f 85/225/50 98/226/92 84/227/71
f 92/210/50 105/212/50 106/228/50
f 92/210/50 106/228/50 91/229/50
f 91/229/50 106/228/50 107/230/50
f 91/229/50 107/230/50 44/231/44
f 44/231/44 107/230/50 43/232/43
f 75/233/66 17/34/17 98/164/92
f 98/164/92 17/34/17 21/33/21
f 98/164/92 21/33/21 84/234/71
f 84/234/71 21/33/21 49/77/49
f 84/234/71 49/77/49 51/235/72
f 98/164/92 77/165/93 75/233/66
